# xmcd
#
# Track frame offsets:
#	150
#	12888
#	25693
#	37265
#	48104
#	59312
#	73734
#	84846
#	97702
#	109195
#	123110
#	133880
#	147252
#
# Disc length: 2080 seconds
#
# Revision: 0
# Processed by: cddbd v1.4PL0 Copyright (c) Steve Scherf et al.
# Submitted via: audiograbber 1.80
#
DISCID=a5081e0d
DTITLE=Bee Gees - In The Beginning CD1
DYEAR=1900
DGENRE=
TTITLE0=Spicks and Specks
TTITLE1=In The Morning
TTITLE2=Like Nobody Else
TTITLE3=All By Myself
TTITLE4=Storm
TTITLE5=Butterfly
TTITLE6=Exit, Stage Right
TTITLE7=Coalman
TTITLE8=I Am The World
TTITLE9=Cherry Red
TTITLE10=I Want Home Again
TTITLE11=Monday's Rain
TTITLE12=How Many Birds
EXTD=
EXTT0=
EXTT1=
EXTT2=
EXTT3=
EXTT4=
EXTT5=
EXTT6=
EXTT7=
EXTT8=
EXTT9=
EXTT10=
EXTT11=
EXTT12=
PLAYORDER=
